<svg width="168" height="163" viewBox="0 0 168 163" fill="none" xmlns="http://www.w3.org/2000/svg">
<path fill-rule="evenodd" clip-rule="evenodd" d="M143.159 55.7978C143.165 45.7206 139.304 35.9566 132.24 28.1855C125.176 20.4144 115.352 15.122 104.456 13.2186C93.5605 11.3152 82.2752 12.9198 72.5415 17.7565C62.8077 22.5932 55.234 30.3595 51.1233 39.7195C50.0099 39.604 48.878 39.5462 47.7275 39.5462C43.4227 39.5455 39.1687 40.3913 35.2579 42.0254C31.3472 43.6595 27.8723 46.0432 25.072 49.0127C22.2717 51.9822 20.2124 55.4671 19.0356 59.228C17.8589 62.9888 17.5926 66.9365 18.2549 70.7998C11.3552 74.3213 5.93544 79.8209 2.84366 86.438C-0.248142 93.0551 -0.837558 100.417 1.16763 107.37C3.17284 114.324 7.65952 120.478 13.9257 124.869C20.1919 129.26 27.884 131.641 35.7985 131.638H125.266C134.764 131.643 143.98 128.705 151.392 123.311C158.804 117.917 163.97 110.388 166.037 101.969C168.103 93.5485 166.947 84.7403 162.759 76.9976C158.571 69.2549 151.601 63.0406 143 59.3803C143.108 58.1886 143.161 56.9934 143.159 55.7978Z" fill="#313942"/>
<mask id="mask0_172_17" style="mask-type:alpha" maskUnits="userSpaceOnUse" x="0" y="12" width="168" height="120">
<path fill-rule="evenodd" clip-rule="evenodd" d="M143.159 55.7978C143.165 45.7206 139.304 35.9566 132.24 28.1855C125.176 20.4144 115.352 15.122 104.456 13.2186C93.5605 11.3152 82.2752 12.9198 72.5415 17.7565C62.8077 22.5932 55.234 30.3595 51.1233 39.7195C50.0099 39.604 48.878 39.5462 47.7275 39.5462C43.4227 39.5455 39.1687 40.3913 35.2579 42.0254C31.3472 43.6595 27.8723 46.0432 25.072 49.0127C22.2717 51.9822 20.2124 55.4671 19.0356 59.228C17.8589 62.9888 17.5926 66.9365 18.2549 70.7998C11.3552 74.3213 5.93544 79.8209 2.84366 86.438C-0.248142 93.0551 -0.837558 100.417 1.16763 107.37C3.17284 114.324 7.65952 120.478 13.9257 124.869C20.1919 129.26 27.884 131.641 35.7985 131.638H125.266C134.764 131.643 143.98 128.705 151.392 123.311C158.804 117.917 163.97 110.388 166.037 101.969C168.103 93.5485 166.947 84.7403 162.759 76.9976C158.571 69.2549 151.601 63.0406 143 59.3803C143.108 58.1886 143.161 56.9934 143.159 55.7978Z" fill="#313942"/>
</mask>
<g mask="url(#mask0_172_17)">
<path d="M26.5 100.808C28.5105 99.8719 29.8979 97.885 29.8979 95.5851C29.8979 94.0083 29.2458 92.5785 28.1877 91.5338C27.0987 90.4586 25.5798 89.7912 23.8995 89.7912C22.9153 89.7912 21.9864 90.0202 21.1669 90.426C19.2279 91.386 17.901 93.3359 17.901 95.5851C17.901 96.6404 18.1931 97.6298 18.7035 98.4819C19.7406 100.214 21.6792 101.379 23.8995 101.379C24.8312 101.379 25.7133 101.174 26.5 100.808Z" fill="#BC2C2F"/>
<path d="M51.914 68.6805C52.6844 67.706 53.142 66.4884 53.142 65.1675C53.142 63.5048 52.4169 62.0056 51.2553 60.949C50.1816 59.9722 48.7349 59.3736 47.1435 59.3736C43.8307 59.3736 41.1451 61.9676 41.1451 65.1675C41.1451 67.1406 42.1662 68.8833 43.7258 69.9295C44.6955 70.5801 45.8734 70.9613 47.1435 70.9613C49.0889 70.9613 50.818 70.0669 51.914 68.6805Z" fill="#BC2C2F"/>
<path d="M134.871 104.276C134.871 107.476 132.185 110.07 128.873 110.07C127.9 110.07 126.981 109.846 126.168 109.449C124.214 108.494 122.874 106.536 122.874 104.276C122.874 102.403 123.794 100.738 125.221 99.6789C126.233 98.9282 127.499 98.4819 128.873 98.4819C132.185 98.4819 134.871 101.076 134.871 104.276Z" fill="#BC2C2F"/>
<path d="M155.866 82.5489C155.866 84.7423 154.604 86.6511 152.743 87.6348C151.889 88.0862 150.909 88.3428 149.867 88.3428C148.26 88.3428 146.801 87.7324 145.724 86.7384C144.581 85.6835 143.869 84.1965 143.869 82.5489C143.869 81.6182 144.096 80.7387 144.5 79.9594C145.484 78.0596 147.518 76.7551 149.867 76.7551C150.433 76.7551 150.981 76.8309 151.5 76.9724C154.02 77.6592 155.866 79.8958 155.866 82.5489Z" fill="#BC2C2F"/>
<path d="M121.375 44.8891C121.375 48.0889 118.689 50.6829 115.376 50.6829C112.814 50.6829 110.628 49.1318 109.768 46.949C109.516 46.309 109.378 45.6146 109.378 44.8891C109.378 41.6892 112.063 39.0952 115.376 39.0952C115.76 39.0952 116.136 39.1301 116.5 39.1968C119.276 39.7049 121.375 42.0602 121.375 44.8891Z" fill="#BC2C2F"/>
<path d="M122.874 14.0068L116.5 39.1968M116.5 39.1968C116.136 39.1301 115.76 39.0952 115.376 39.0952M116.5 39.1968C119.276 39.7049 121.375 42.0602 121.375 44.8891M109.768 46.949L96.4254 50.7593M109.768 46.949C110.628 49.1318 112.814 50.6829 115.376 50.6829M109.768 46.949C109.516 46.309 109.378 45.6146 109.378 44.8891M153.089 59.502L151.5 76.9724M151.5 76.9724C150.981 76.8309 150.433 76.7551 149.867 76.7551M151.5 76.9724C154.02 77.6592 155.866 79.8958 155.866 82.5489M97.349 55.2051L144.5 79.9594M144.5 79.9594C144.096 80.7387 143.869 81.6182 143.869 82.5489M144.5 79.9594C145.484 78.0596 147.518 76.7551 149.867 76.7551M96.3508 59.017L125.221 99.6789M125.5 100.072L125.221 99.6789M152.446 87.3373L152.743 87.6348M170.174 105.093L152.743 87.6348M26.5 100.808L49.8253 135.952M26.5 100.808C28.5105 99.8719 29.8979 97.885 29.8979 95.5851M26.5 100.808C25.7133 101.174 24.8312 101.379 23.8995 101.379M29.8979 95.5851H80.3817M29.8979 95.5851C29.8979 98.7849 27.2123 101.379 23.8995 101.379M29.8979 95.5851C29.8979 92.3852 27.2123 89.7912 23.8995 89.7912M29.8979 95.5851C29.8979 94.0083 29.2458 92.5785 28.1877 91.5338M98.3346 101.392L122.874 104.276M122.874 104.276C122.874 107.476 125.56 110.07 128.873 110.07M122.874 104.276C122.874 106.536 124.214 108.494 126.168 109.449M122.874 104.276C122.874 102.403 123.794 100.738 125.221 99.6789M113.379 133.599L126.168 109.449M126.168 109.449C126.981 109.846 127.9 110.07 128.873 110.07M28.1877 91.5338C27.0987 90.4586 25.5798 89.7912 23.8995 89.7912M28.1877 91.5338L43.7258 69.9295M44.6241 68.6805L43.7258 69.9295M51.914 68.6805L76.8527 87.3373M51.914 68.6805C52.6844 67.706 53.142 66.4884 53.142 65.1675M51.914 68.6805C50.818 70.0669 49.0889 70.9613 47.1435 70.9613M51.2553 60.949L81.9501 37.141M51.2553 60.949C52.4169 62.0056 53.142 63.5048 53.142 65.1675M51.2553 60.949C50.1816 59.9722 48.7349 59.3736 47.1435 59.3736M16.6528 61.5668L41.1451 65.1675M41.1451 65.1675C41.1451 61.9676 43.8307 59.3736 47.1435 59.3736M41.1451 65.1675C41.1451 67.1406 42.1662 68.8833 43.7258 69.9295M-3.13672 111.558L18.7035 98.4819M18.7035 98.4819C18.1931 97.6298 17.901 96.6404 17.901 95.5851M18.7035 98.4819C19.7406 100.214 21.6792 101.379 23.8995 101.379M21.6368 91.5338L21.1669 90.426M9.76506 63.5439L21.1669 90.426M133 100.072L145.724 86.7384M146 86.449L145.724 86.7384M155.866 82.5489C155.866 79.3491 153.18 76.7551 149.867 76.7551M155.866 82.5489C155.866 84.7423 154.604 86.6511 152.743 87.6348M143.869 82.5489C143.869 79.3491 146.554 76.7551 149.867 76.7551M143.869 82.5489C143.869 84.1965 144.581 85.6835 145.724 86.7384M23.8995 101.379C20.5866 101.379 17.901 98.7849 17.901 95.5851M17.901 95.5851C17.901 93.3359 19.2279 91.386 21.1669 90.426M23.8995 89.7912C22.9153 89.7912 21.9864 90.0202 21.1669 90.426M53.142 65.1675C53.142 68.3673 50.4564 70.9613 47.1435 70.9613M53.142 65.1675C53.142 61.9676 50.4564 59.3736 47.1435 59.3736M47.1435 70.9613C45.8734 70.9613 44.6955 70.5801 43.7258 69.9295M121.375 44.8891C121.375 48.0889 118.689 50.6829 115.376 50.6829M121.375 44.8891C121.375 41.6892 118.689 39.0952 115.376 39.0952M115.376 50.6829C112.063 50.6829 109.378 48.0889 109.378 44.8891M109.378 44.8891C109.378 41.6892 112.063 39.0952 115.376 39.0952M128.873 110.07C132.185 110.07 134.871 107.476 134.871 104.276C134.871 101.076 132.185 98.4819 128.873 98.4819C127.499 98.4819 126.233 98.9282 125.221 99.6789M152.743 87.6348C151.889 88.0862 150.909 88.3428 149.867 88.3428C148.26 88.3428 146.801 87.7324 145.724 86.7384" stroke="#BC2C2F" stroke-width="4"/>
</g>
<path d="M101.666 112.425C103.22 43.4567 99.3369 24.25 87.1582 6.94897V155.949H95.3924L98.5292 146.146L115.39 155.949V130.462L101.666 112.425Z" fill="#D9D9D9"/>
<path d="M72.6505 112.425C71.0962 43.4567 74.9796 24.25 87.1584 6.94897V155.949H78.9241L75.7873 146.146L58.9268 155.949V130.462L72.6505 112.425Z" fill="#D9D9D9"/>
<path d="M87.1584 6.94897C99.3371 24.25 103.22 43.4567 101.666 112.425L115.39 130.462V155.949L98.5294 146.146L95.3926 155.949H87.1584M87.1584 6.94897C74.9796 24.25 71.0962 43.4567 72.6505 112.425L58.9268 130.462V155.949L75.7873 146.146L78.9241 155.949H87.1584M87.1584 6.94897V155.949" stroke="white" stroke-width="8"/>
<path d="M101.666 112.425C103.22 43.4567 99.3369 24.25 87.1582 6.94897V155.949H95.3924L98.5292 146.146L115.39 155.949V130.462L101.666 112.425Z" fill="#BE2C30"/>
<path d="M72.6505 112.425C71.0962 43.4567 74.9796 24.25 87.1584 6.94897V155.949H78.9241L75.7873 146.146L58.9268 155.949V130.462L72.6505 112.425Z" fill="#EA3837"/>
</svg>
