<svg width="643" height="165" viewBox="0 0 643 165" fill="none" xmlns="http://www.w3.org/2000/svg">
<path fill-rule="evenodd" clip-rule="evenodd" d="M143.159 57.8489C143.165 47.7717 139.304 38.0077 132.24 30.2366C125.176 22.4655 115.352 17.1731 104.456 15.2697C93.5605 13.3663 82.2752 14.9709 72.5415 19.8076C62.8077 24.6443 55.234 32.4106 51.1233 41.7706C50.0099 41.6551 48.878 41.5973 47.7275 41.5973C43.4227 41.5966 39.1687 42.4424 35.2579 44.0765C31.3472 45.7106 27.8723 48.0943 25.072 51.0638C22.2717 54.0333 20.2124 57.5182 19.0356 61.2791C17.8589 65.0399 17.5926 68.9876 18.2549 72.8509C11.3552 76.3724 5.93544 81.872 2.84366 88.4891C-0.248142 95.1062 -0.837558 102.468 1.16763 109.421C3.17284 116.375 7.65952 122.529 13.9257 126.92C20.1919 131.311 27.884 133.692 35.7985 133.689H125.266C134.764 133.694 143.98 130.756 151.392 125.362C158.804 119.968 163.97 112.439 166.037 104.02C168.103 95.5996 166.947 86.7914 162.759 79.0487C158.571 71.306 151.601 65.0917 143 61.4314C143.108 60.2397 143.161 59.0445 143.159 57.8489Z" fill="#313942"/>
<mask id="mask0_172_3" style="mask-type:alpha" maskUnits="userSpaceOnUse" x="0" y="14" width="168" height="120">
<path fill-rule="evenodd" clip-rule="evenodd" d="M143.159 57.8489C143.165 47.7717 139.304 38.0077 132.24 30.2366C125.176 22.4655 115.352 17.1731 104.456 15.2697C93.5605 13.3663 82.2752 14.9709 72.5415 19.8076C62.8077 24.6443 55.234 32.4106 51.1233 41.7706C50.0099 41.6551 48.878 41.5973 47.7275 41.5973C43.4227 41.5966 39.1687 42.4424 35.2579 44.0765C31.3472 45.7106 27.8723 48.0943 25.072 51.0638C22.2717 54.0333 20.2124 57.5182 19.0356 61.2791C17.8589 65.0399 17.5926 68.9876 18.2549 72.8509C11.3552 76.3724 5.93544 81.872 2.84366 88.4891C-0.248142 95.1062 -0.837558 102.468 1.16763 109.421C3.17284 116.375 7.65952 122.529 13.9257 126.92C20.1919 131.311 27.884 133.692 35.7985 133.689H125.266C134.764 133.694 143.98 130.756 151.392 125.362C158.804 119.968 163.97 112.439 166.037 104.02C168.103 95.5996 166.947 86.7914 162.759 79.0487C158.571 71.306 151.601 65.0917 143 61.4314C143.108 60.2397 143.161 59.0445 143.159 57.8489Z" fill="#313942"/>
</mask>
<g mask="url(#mask0_172_3)">
<path d="M26.5 102.859C28.5105 101.923 29.8979 99.936 29.8979 97.6362C29.8979 96.0593 29.2458 94.6295 28.1877 93.5849C27.0987 92.5096 25.5798 91.8423 23.8995 91.8423C22.9153 91.8423 21.9864 92.0712 21.1669 92.477C19.2279 93.437 17.901 95.3869 17.901 97.6362C17.901 98.6914 18.1931 99.6808 18.7035 100.533C19.7406 102.265 21.6792 103.43 23.8995 103.43C24.8312 103.43 25.7133 103.225 26.5 102.859Z" fill="#BC2C2F"/>
<path d="M51.914 70.7316C52.6844 69.757 53.142 68.5394 53.142 67.2186C53.142 65.5558 52.4169 64.0566 51.2553 63C50.1816 62.0232 48.7349 61.4247 47.1435 61.4247C43.8307 61.4247 41.1451 64.0187 41.1451 67.2186C41.1451 69.1916 42.1662 70.9343 43.7258 71.9806C44.6955 72.6311 45.8734 73.0124 47.1435 73.0124C49.0889 73.0124 50.818 72.1179 51.914 70.7316Z" fill="#BC2C2F"/>
<path d="M134.871 106.327C134.871 109.527 132.185 112.121 128.873 112.121C127.9 112.121 126.981 111.897 126.168 111.5C124.214 110.545 122.874 108.587 122.874 106.327C122.874 104.454 123.794 102.789 125.221 101.73C126.233 100.979 127.499 100.533 128.873 100.533C132.185 100.533 134.871 103.127 134.871 106.327Z" fill="#BC2C2F"/>
<path d="M155.866 84.6C155.866 86.7934 154.604 88.7021 152.743 89.6858C151.889 90.1372 150.909 90.3939 149.867 90.3939C148.26 90.3939 146.801 89.7834 145.724 88.7894C144.581 87.7345 143.869 86.2475 143.869 84.6C143.869 83.6692 144.096 82.7898 144.5 82.0105C145.484 80.1106 147.518 78.8062 149.867 78.8062C150.433 78.8062 150.981 78.8819 151.5 79.0234C154.02 79.7102 155.866 81.9468 155.866 84.6Z" fill="#BC2C2F"/>
<path d="M121.375 46.9402C121.375 50.14 118.689 52.734 115.376 52.734C112.814 52.734 110.628 51.1829 109.768 49C109.516 48.36 109.378 47.6656 109.378 46.9402C109.378 43.7403 112.063 41.1463 115.376 41.1463C115.76 41.1463 116.136 41.1811 116.5 41.2478C119.276 41.7559 121.375 44.1113 121.375 46.9402Z" fill="#BC2C2F"/>
<path d="M122.874 16.0579L116.5 41.2478M116.5 41.2478C116.136 41.1811 115.76 41.1463 115.376 41.1463M116.5 41.2478C119.276 41.7559 121.375 44.1113 121.375 46.9402M109.768 49L96.4254 52.8104M109.768 49C110.628 51.1829 112.814 52.734 115.376 52.734M109.768 49C109.516 48.36 109.378 47.6656 109.378 46.9402M153.089 61.5531L151.5 79.0234M151.5 79.0234C150.981 78.8819 150.433 78.8062 149.867 78.8062M151.5 79.0234C154.02 79.7102 155.866 81.9468 155.866 84.6M97.349 57.2562L144.5 82.0105M144.5 82.0105C144.096 82.7898 143.869 83.6692 143.869 84.6M144.5 82.0105C145.484 80.1106 147.518 78.8062 149.867 78.8062M96.3508 61.0681L125.221 101.73M125.5 102.123L125.221 101.73M152.446 89.3884L152.743 89.6858M170.174 107.144L152.743 89.6858M26.5 102.859L49.8253 138.003M26.5 102.859C28.5105 101.923 29.8979 99.936 29.8979 97.6362M26.5 102.859C25.7133 103.225 24.8312 103.43 23.8995 103.43M29.8979 97.6362H80.3817M29.8979 97.6362C29.8979 100.836 27.2123 103.43 23.8995 103.43M29.8979 97.6362C29.8979 94.4363 27.2123 91.8423 23.8995 91.8423M29.8979 97.6362C29.8979 96.0593 29.2458 94.6295 28.1877 93.5849M98.3346 103.443L122.874 106.327M122.874 106.327C122.874 109.527 125.56 112.121 128.873 112.121M122.874 106.327C122.874 108.587 124.214 110.545 126.168 111.5M122.874 106.327C122.874 104.454 123.794 102.789 125.221 101.73M113.379 135.65L126.168 111.5M126.168 111.5C126.981 111.897 127.9 112.121 128.873 112.121M28.1877 93.5849C27.0987 92.5096 25.5798 91.8423 23.8995 91.8423M28.1877 93.5849L43.7258 71.9806M44.6241 70.7316L43.7258 71.9806M51.914 70.7316L76.8527 89.3884M51.914 70.7316C52.6844 69.757 53.142 68.5394 53.142 67.2186M51.914 70.7316C50.818 72.1179 49.0889 73.0124 47.1435 73.0124M51.2553 63L81.9501 39.1921M51.2553 63C52.4169 64.0566 53.142 65.5558 53.142 67.2186M51.2553 63C50.1816 62.0232 48.7349 61.4247 47.1435 61.4247M16.6528 63.6179L41.1451 67.2186M41.1451 67.2186C41.1451 64.0187 43.8307 61.4247 47.1435 61.4247M41.1451 67.2186C41.1451 69.1916 42.1662 70.9343 43.7258 71.9806M-3.13672 113.609L18.7035 100.533M18.7035 100.533C18.1931 99.6808 17.901 98.6914 17.901 97.6362M18.7035 100.533C19.7406 102.265 21.6792 103.43 23.8995 103.43M21.6368 93.5849L21.1669 92.477M9.76506 65.595L21.1669 92.477M133 102.123L145.724 88.7894M146 88.5L145.724 88.7894M155.866 84.6C155.866 81.4002 153.18 78.8062 149.867 78.8062M155.866 84.6C155.866 86.7934 154.604 88.7021 152.743 89.6858M143.869 84.6C143.869 81.4002 146.554 78.8062 149.867 78.8062M143.869 84.6C143.869 86.2475 144.581 87.7345 145.724 88.7894M23.8995 103.43C20.5866 103.43 17.901 100.836 17.901 97.6362M17.901 97.6362C17.901 95.3869 19.2279 93.437 21.1669 92.477M23.8995 91.8423C22.9153 91.8423 21.9864 92.0712 21.1669 92.477M53.142 67.2186C53.142 70.4184 50.4564 73.0124 47.1435 73.0124M53.142 67.2186C53.142 64.0187 50.4564 61.4247 47.1435 61.4247M47.1435 73.0124C45.8734 73.0124 44.6955 72.6311 43.7258 71.9806M121.375 46.9402C121.375 50.14 118.689 52.734 115.376 52.734M121.375 46.9402C121.375 43.7403 118.689 41.1463 115.376 41.1463M115.376 52.734C112.063 52.734 109.378 50.14 109.378 46.9402M109.378 46.9402C109.378 43.7403 112.063 41.1463 115.376 41.1463M128.873 112.121C132.185 112.121 134.871 109.527 134.871 106.327C134.871 103.127 132.185 100.533 128.873 100.533C127.499 100.533 126.233 100.979 125.221 101.73M152.743 89.6858C151.889 90.1372 150.909 90.3939 149.867 90.3939C148.26 90.3939 146.801 89.7834 145.724 88.7894" stroke="#BC2C2F" stroke-width="4"/>
</g>
<path d="M101.666 114.476C103.22 45.5077 99.3369 26.301 87.1582 9V158H95.3924L98.5292 148.197L115.39 158V132.513L101.666 114.476Z" fill="#D9D9D9"/>
<path d="M72.6505 114.476C71.0962 45.5077 74.9796 26.301 87.1584 9V158H78.9241L75.7873 148.197L58.9268 158V132.513L72.6505 114.476Z" fill="#D9D9D9"/>
<path d="M87.1584 9C99.3371 26.301 103.22 45.5077 101.666 114.476L115.39 132.513V158L98.5294 148.197L95.3926 158H87.1584M87.1584 9C74.9796 26.301 71.0962 45.5077 72.6505 114.476L58.9268 132.513V158L75.7873 148.197L78.9241 158H87.1584M87.1584 9V158" stroke="white" stroke-width="8"/>
<path d="M101.666 114.476C103.22 45.5077 99.3369 26.301 87.1582 9V158H95.3924L98.5292 148.197L115.39 158V132.513L101.666 114.476Z" fill="#BE2C30"/>
<path d="M72.6505 114.476C71.0962 45.5077 74.9796 26.301 87.1584 9V158H78.9241L75.7873 148.197L58.9268 158V132.513L72.6505 114.476Z" fill="#EA3837"/>
<path d="M197.032 124V34.4001H210.728L266.92 103.392H260.136V34.4001H276.648V124H262.952L206.76 55.0081H213.544V124H197.032ZM316.017 71.6481H360.561V85.3441H316.017V71.6481ZM317.297 110.048H367.857V124H300.657V34.4001H366.065V48.3521H317.297V110.048ZM374.527 124L412.287 72.0321V84.5761L376.319 34.4001H395.135L421.887 71.5201L414.207 71.6481L440.703 34.4001H458.751L423.039 83.6801V71.6481L461.055 124H441.855L413.695 84.5761H421.247L393.471 124H374.527ZM511.435 125.28C499.147 125.28 489.504 121.824 482.507 114.912C475.595 108 472.139 98.0161 472.139 84.9601V34.4001H488.779V84.3201C488.779 93.5361 490.742 100.235 494.667 104.416C498.678 108.597 504.31 110.688 511.563 110.688C518.816 110.688 524.406 108.597 528.331 104.416C532.256 100.235 534.219 93.5361 534.219 84.3201V34.4001H550.603V84.9601C550.603 98.0161 547.104 108 540.107 114.912C533.195 121.824 523.638 125.28 511.435 125.28ZM601.683 125.28C594.686 125.28 587.987 124.299 581.587 122.336C575.187 120.288 570.11 117.685 566.355 114.528L572.115 101.6C575.699 104.416 580.136 106.763 585.427 108.64C590.718 110.517 596.136 111.456 601.683 111.456C606.376 111.456 610.174 110.944 613.075 109.92C615.976 108.896 618.11 107.531 619.475 105.824C620.84 104.032 621.523 102.027 621.523 99.8081C621.523 97.0774 620.542 94.9014 618.579 93.2801C616.616 91.5734 614.056 90.2508 610.899 89.3121C607.827 88.2881 604.371 87.3494 600.531 86.4961C596.776 85.6428 592.979 84.6614 589.139 83.5521C585.384 82.3574 581.928 80.8641 578.771 79.0721C575.699 77.1948 573.182 74.7201 571.219 71.6481C569.256 68.5761 568.275 64.6508 568.275 59.8721C568.275 55.0081 569.555 50.5708 572.115 46.5601C574.76 42.4641 578.728 39.2214 584.019 36.8321C589.395 34.3574 596.179 33.1201 604.371 33.1201C609.747 33.1201 615.08 33.8028 620.371 35.1681C625.662 36.5334 630.27 38.4961 634.195 41.0561L628.947 53.9841C624.936 51.5948 620.798 49.8454 616.531 48.7361C612.264 47.5414 608.168 46.9441 604.243 46.9441C599.635 46.9441 595.88 47.4988 592.979 48.6081C590.163 49.7174 588.072 51.1681 586.707 52.9601C585.427 54.7521 584.787 56.8001 584.787 59.1041C584.787 61.8348 585.726 64.0534 587.603 65.7601C589.566 67.3814 592.083 68.6614 595.155 69.6001C598.312 70.5388 601.811 71.4774 605.651 72.4161C609.491 73.2694 613.288 74.2508 617.043 75.3601C620.883 76.4694 624.339 77.9201 627.411 79.7121C630.568 81.5041 633.086 83.9361 634.963 87.0081C636.926 90.0801 637.907 93.9628 637.907 98.6561C637.907 103.435 636.584 107.872 633.939 111.968C631.379 115.979 627.411 119.221 622.035 121.696C616.659 124.085 609.875 125.28 601.683 125.28Z" fill="#313942"/>
</svg>
